<svg width="11" height="10" viewBox="0 0 11 10" fill="none" xmlns="http://www.w3.org/2000/svg">
<path d="M5.1716 0.71186C5.36593 0.38895 5.83407 0.388951 6.0284 0.711861L7.33407 2.88143C7.40388 2.99743 7.51776 3.08017 7.64966 3.11072L10.1165 3.68205C10.4837 3.76708 10.6283 4.21232 10.3813 4.49692L8.72137 6.40911C8.63262 6.51136 8.58912 6.64522 8.60083 6.78011L8.81976 9.30278C8.85235 9.67824 8.47361 9.95341 8.12659 9.8064L5.79504 8.81863C5.67038 8.76582 5.52962 8.76582 5.40495 8.81863L3.07341 9.8064C2.72639 9.95341 2.34765 9.67824 2.38024 9.30278L2.59917 6.78011C2.61088 6.64522 2.56738 6.51136 2.47863 6.40911L0.818719 4.49692C0.571665 4.21231 0.716331 3.76708 1.08349 3.68205L3.55034 3.11072C3.68224 3.08017 3.79612 2.99743 3.86593 2.88143L5.1716 0.71186Z" fill="#DB9714"/>
</svg>
